<svg viewBox="0 0 512 512" xmlns="http://www.w3.org/2000/svg"><path d="m511.914062 256c0-141.386719-114.59375-256-255.957031-256-141.359375 0-255.957031 114.613281-255.957031 256s114.597656 256 255.957031 256c141.363281 0 255.957031-114.613281 255.957031-256zm0 0" fill="#407fff"/><path d="m410.71875 52.097656c32.675781 42.988282 52.085938 96.617188 52.085938 154.785156 0 141.382813-114.59375 256-255.957032 256-58.160156 0-111.777344-19.414062-154.757812-52.097656 46.75 61.5 120.664062 101.214844 203.867187 101.214844 141.363281 0 255.957031-114.613281 255.957031-256 0-83.214844-39.707031-157.144531-101.195312-203.902344zm0 0" fill="#406aef"/><path d="m137.597656 374.183594 16.957032-16.960938c48.445312 42.789063 102.644531 54.179688 161.996093 27.527344 37.277344-16.742188 61.589844-46.097656 75.660157-85.421875.878906-2.453125-.949219-5.039063-3.554688-5.03125-13.039062.03125-25.339844-.074219-37.601562.539063-2.441407.121093-5.40625 3.710937-6.917969 6.382812-25.519531 45.203125-76.925781 64.988281-123.550781 46.347656-12.144532-4.855468-23-12.933594-35.933594-20.386718l17.269531-17.273438c2.121094-2.121094.617187-5.75-2.382813-5.75-21.078124-.003906-41.898437-.011719-63.273437-.015625-2.605469 0-4.726563 2.109375-4.722656 4.714844.015625 17.640625-.015625 48.714843.304687 63.03125.066406 2.960937 3.652344 4.390625 5.75 2.296875zm0 0" fill="#e3faff"/><path d="m388.65625 294.296875c-7.640625.019531-15.023438-.007813-22.300781.089844 2.15625.464843 3.53125 2.753906 2.746093 4.941406-14.066406 39.324219-38.378906 68.683594-75.65625 85.421875-17.382812 7.804688-34.316406 12.324219-50.796874 13.769531 23.644531 2.132813 48.292968-2.269531 73.902343-13.769531 37.277344-16.742188 61.589844-46.097656 75.660157-85.421875.875-2.449219-.949219-5.039063-3.554688-5.03125zm0 0" fill="#ccf4ff"/><path d="m325.351562 186.390625-15.375 15.378906c-1.960937 1.960938-.578124 5.316407 2.199219 5.320313 20.589844.039062 41.261719.074218 61.414063.109375 2.609375.003906 4.714844-2.105469 4.714844-4.714844-.027344-19.445313-.054688-40.109375-.082032-61.011719-.003906-2.777344-3.359375-4.164062-5.324218-2.199218l-15.609376 15.613281c-45.597656-40.871094-96.691406-52.851563-153.785156-31.613281-39.011718 14.511718-71.089844 49.421874-83.839844 89.066406-.773437 2.40625 1.046876 4.863281 3.578126 4.871094 12.761718.035156 25.332031.179687 37.878906-.304688 2.191406-.085938 4.863281-3.527344 6.265625-6.011719 23.773437-42.105469 69.578125-62.300781 114.40625-50.0625 16.316406 4.457031 30.617187 12.589844 43.558593 25.558594zm0 0" fill="#e3faff"/><path d="m378.222656 141.472656c-.003906-2.777344-3.359375-4.164062-5.324218-2.199218l-15.609376 15.613281c-5.171874-4.636719-10.414062-8.875-15.726562-12.757813 0-.003906 0-.003906 0-.007812-.039062-.027344-.074219-.050782-.113281-.078125-.070313-.054688-.144531-.109375-.214844-.160157v.003907c-31.550781-22.96875-65.617187-32.628907-102.355469-27.648438 20.339844 2.875 50.175782 18.605469 74.925782 35.609375 17.222656 11.835938 27.480468 31.425782 27.511718 52.328125v.304688c0 2.386719-1.765625 4.335937-4.0625 4.652343 12.210938.023438 24.367188.042969 36.335938.066407 2.609375.003906 4.714844-2.105469 4.710937-4.710938-.023437-19.445312-.050781-40.109375-.078125-61.015625zm0 0" fill="#ccf4ff"/></svg>